{"title":"Power Rangers Super Megaforce S21 E19 The Wrath WEB-DL","uid":11484356,"size":272980053,"categoryP":"video","categoryS":"tv_shows","magnet":"?xt=urn:btih:55f9b3c4b212efef4ffd968eb48abf8b45c6c641&amp;dn=Power+Rangers+Super+Megaforce+S21+E19+The+Wrath+WEB-DL&amp;tr=udp%3A%2F%2Ftracker.openbittorrent.com%3A80&amp;tr=udp%3A%2F%2Fopen.demonii.com%3A1337&amp;tr=udp%3A%2F%2Ftracker.coppersurfer.tk%3A6969&amp;tr=udp%3A%2F%2Fexodus.desync.com%3A6969","seeders":6,"leechers":0,"uploader":"jmanwf","files":-1,"time":1416208325,"description":"Just when the Rangers thought they'd saved the planet, the Emperor reveals himself and launches a massive attack on Earth.\n\nSeason 21 Episode 19 | Aired on 11/15/2014 | TV-Y7-FV | 23:34\n\n\nFormat : MPEG-4\nFormat profile : Base Media\nCodec ID : isom\nFile size : 260 MiB\nDuration : 23mn 34s\nOverall bit rate mode : Variable\nOverall bit rate : 1 543 Kbps\nEncoded date : UTC 2014-11-16 11:15:30\nTagged date : UTC 2014-11-16 11:15:30\n\nVideo\nID : 1\nFormat : AVC\nFormat/Info : Advanced Video Codec\nFormat profile : &lt;a class=&quot;__cf_email__&quot; href=&quot;/cdn-cgi/l/email-protection&quot; data-cfemail=&quot;c58daca2ad8589f6ebf4&quot;&gt;[email&amp;#160;protected]&lt;/a&gt;&lt;script cf-hash='f9e31' type=&quot;text/javascript&quot;&gt;\n/* &lt;![CDATA[ */!function(){try{var t=&quot;currentScript&quot;in document?document.currentScript:function(){for(var t=document.getElementsByTagName(&quot;script&quot;),e=t.length;e--;)if(t[e].getAttribute(&quot;cf-hash&quot;))return t[e]}();if(t&amp;&amp;t.previousSibling){var e,r,n,i,c=t.previousSibling,a=c.getAttribute(&quot;data-cfemail&quot;);if(a){for(e=&quot;&quot;,r=parseInt(a.substr(0,2),16),n=2;a.length-n;n+=2)i=parseInt(a.substr(n,2),16)^r,e+=String.fromCharCode(i);e=document.createTextNode(e),c.parentNode.replaceChild(e,c)}}}catch(u){}}();/* ]]&gt; */&lt;/script&gt;\nFormat settings, CABAC : Yes\nFormat settings, ReFrames : 5 frames\nCodec ID : avc1\nCodec ID/Info : Advanced Video Coding\nDuration : 23mn 34s\nBit rate : 1 412 Kbps\nMaximum bit rate : 3 171 Kbps\nWidth : 1 280 pixels\nHeight : 720 pixels\nDisplay aspect ratio : 16:9\nFrame rate mode : Constant\nFrame rate : 23.976 fps\nColor space : YUV\nChroma subsampling : 4:2:0\nBit depth : 8 bits\nScan type : Progressive\nBits/(Pixel*Frame) : 0.064\nStream size : 238 MiB (91%)\nEncoded date : UTC 2014-11-16 11:15:30\nTagged date : UTC 2014-11-16 11:15:34\n\nAudio\nID : 2\nFormat : AAC\nFormat/Info : Advanced Audio Codec\nFormat profile : LC\nCodec ID : 40\nDuration : 23mn 34s\nBit rate mode : Variable\nBit rate : 128 Kbps\nMaximum bit rate : 146 Kbps\nChannel(s) : 2 channels\nChannel positions : Front: L R\nSampling rate : 48.0 KHz\nCompression mode : Lossy\nStream size : 21.6 MiB (8%)\nEncoded date : UTC 2014-11-16 11:15:33\nTagged date : UTC 2014-11-16 11:15:34","torrent":{"xt":"urn:btih:55f9b3c4b212efef4ffd968eb48abf8b45c6c641","amp;dn":"Power+Rangers+Super+Megaforce+S21+E19+The+Wrath+WEB-DL","amp;tr":["udp%3A%2F%2Ftracker.openbittorrent.com%3A80","udp%3A%2F%2Fopen.demonii.com%3A1337","udp%3A%2F%2Ftracker.coppersurfer.tk%3A6969","udp%3A%2F%2Fexodus.desync.com%3A6969"],"infoHash":"55f9b3c4b212efef4ffd968eb48abf8b45c6c641","infoHashBuffer":{"type":"Buffer","data":[85,249,179,196,178,18,239,239,79,253,150,142,180,138,191,139,69,198,198,65]},"announce":[],"urlList":[]}}